<svg xmlns="http://www.w3.org/2000/svg" viewBox="0 0 128 128">
  <rect width="128" height="128" rx="16" fill="#1d4ed8"/>
  <g transform="translate(22, 22) scale(0.84)">
    <polygon fill="#ffffff" points="95.1,40.4 95.1,37.5 88.1,37.5 88.1,41.4 58.5,41.4 58.5,11.9 62.5,11.9 62.5,4.9 59.6,4.9 51.7,0 48.7,0 40.4,4.9 37.5,4.9 37.5,11.9 41.4,11.9 41.4,41.4 11.8,41.4 11.8,37.5 4.9,37.5 4.9,40.4 0,48.3 0,51.3 4.9,59.5 4.9,62.5 11.8,62.5 11.8,58.5 41.4,58.5 41.4,88.1 37.5,88.1 37.5,95.1 40.4,95.1 48.3,100 51.3,100 59.5,95.1 62.5,95.1 62.5,88.1 58.5,88.1 58.5,58.5 88.1,58.5 88.1,62.5 95.1,62.5 95.1,59.6 100,51.7 100,48.7 95.1,40.4"/>
  </g>
</svg>
